Coordinates
version=1
nRows=17
nColumns=40
inDegrees=yes

Units are S.I. units (second, meters, Newtons, ...)
Angles are in degrees.

endheader
time	pelvis_tilt	pelvis_list	pelvis_rotation	pelvis_tx	pelvis_ty	pelvis_tz	hip_flexion_r	hip_adduction_r	hip_rotation_r	knee_angle_r	knee_angle_r_beta	ankle_angle_r	subtalar_angle_r	mtp_angle_r	hip_flexion_l	hip_adduction_l	hip_rotation_l	knee_angle_l	knee_angle_l_beta	ankle_angle_l	subtalar_angle_l	mtp_angle_l	lumbar_extension	lumbar_bending	lumbar_rotation	arm_flex_r	arm_add_r	arm_rot_r	elbow_flex_r	pro_sup_r	wrist_flex_r	wrist_dev_r	arm_flex_l	arm_add_l	arm_rot_l	elbow_flex_l	pro_sup_l	wrist_flex_l	wrist_dev_l
     56.57500000	     -4.19128048	     -2.70725600	     -6.12491816	      1.04679104	      0.92268827	      0.46071296	     29.51309023	     -2.27795809	    -12.07862893	     14.27639139	     14.27639139	      3.21771922	      7.08189327	     10.66647843	     -2.90932236	     -2.52407562	    -13.61194309	      8.85905740	      8.85905740	     16.97816388	     -2.97991994	     -6.85775789	    -12.32382958	      2.25551145	      1.90768534	    -16.23643373	    -14.51163660	     -8.21635118	     26.92333909	     47.00985562	      0.00000000	      0.00000000	     23.51242977	    -20.22837400	     -0.58768487	    100.66408526	     47.84976447	      0.00000000	      0.00000000
     56.58707143	     -4.07577311	     -2.64137802	     -6.14352238	      1.04838286	      0.92061173	      0.46235694	     28.99812447	     -1.97305429	    -12.95555460	     13.33621558	     13.33621558	      3.06591534	      7.80419143	     11.27549790	     -3.81347803	     -2.47503191	    -13.77331735	      8.78038445	      8.78038445	     17.64843143	     -2.58999072	     -6.77844514	    -12.32009786	      2.16709900	      1.99039364	    -17.48795384	    -14.50279985	     -8.41695548	     27.01024337	     46.99777160	      0.00000000	      0.00000000	     23.91116224	    -20.20126900	     -0.59052524	    102.65882121	     47.90534550	      0.00000000	      0.00000000
     56.59914286	     -4.12023573	     -2.55730569	     -6.11207506	      1.04989804	      0.91833794	      0.46411353	     28.85960447	     -1.72454429	    -13.40060779	     13.18879962	     13.18879962	      2.77015554	      7.75131419	     11.38445380	     -4.43530022	     -2.45211294	    -13.70185219	      8.87327513	      8.87327513	     18.18883388	     -2.57654563	     -6.87567464	    -12.03795599	      2.12087401	      1.80139656	    -18.35345037	    -14.49887459	     -8.46468836	     26.79666736	     47.00018606	      0.00000000	      0.00000000	     24.32093745	    -20.34211064	     -0.74774536	    103.29124888	     47.93278612	      0.00000000	      0.00000000
     56.61121429	     -4.03014203	     -2.78388931	     -6.13898562	      1.05155507	      0.91650947	      0.46621651	     28.34160410	     -1.17914391	    -13.93929741	     13.05010073	     13.05010073	      2.12808619	      7.92753171	     10.98096728	     -5.09603244	     -2.82703065	    -13.84445827	      9.31313596	      9.31313596	     18.98429654	     -2.43962642	     -6.57376469	    -12.15013644	      2.32104936	      2.27189136	    -19.32595735	    -14.31269215	     -8.56623470	     26.87903265	     46.98575011	      0.00000000	      0.00000000	     24.61363775	    -19.87492550	     -0.69788856	    105.74894804	     47.99109617	      0.00000000	      0.00000000
     56.62328571	     -4.04413496	     -2.90738390	     -6.04672941	      1.05341959	      0.91456714	      0.46841544	     27.93547475	     -0.74399697	    -13.96736848	     13.11158974	     13.11158974	      0.15228103	      7.20073128	      6.14972868	     -5.39440914	     -3.29505672	    -14.61848279	     10.36350966	     10.36350966	     21.00980030	     -0.72107666	     -4.10789936	    -12.01231341	      2.45952157	      1.69174975	    -20.02266046	    -14.28822422	     -8.92741969	     28.08025150	     46.89633687	      0.00000000	      0.00000000	     23.93272592	    -20.24758302	     -1.38586605	    108.01161935	     48.14940974	      0.00000000	      0.00000000
     56.63535714	     -4.10250733	     -3.14173024	     -5.94977427	      1.05504992	      0.91289458	      0.47068130	     27.73037989	     -0.26776704	    -13.73031549	     13.69762715	     13.69762715	     -1.10286493	      6.07499682	      3.47937623	     -5.69512730	     -3.79802413	    -14.63241452	     11.16805664	     11.16805664	     21.85587724	     -0.60718080	     -3.52789921	    -11.89832016	      2.71928937	      1.82385900	    -20.30935081	    -14.14736123	     -8.70896424	     27.68392992	     46.85759880	      0.00000000	      0.00000000	     23.93537013	    -20.05729759	     -1.27837985	    109.18914698	     48.21544998	      0.00000000	      0.00000000
     56.64742857	     -4.19969814	     -3.40942332	     -5.81109003	      1.05668146	      0.91153979	      0.47300257	     27.69822989	      0.11056416	    -13.60352360	     14.75956931	     14.75956931	     -1.51043991	      5.27610941	      2.48533264	     -5.93008979	     -4.34690670	    -14.47772457	     11.96044470	     11.96044470	     22.30615569	     -0.79984954	     -3.48892984	    -11.72935550	      3.02821962	      1.97545955	    -20.50877495	    -13.93425998	     -8.61444184	     27.52058810	     46.84571524	      0.00000000	      0.00000000	     23.85014675	    -19.63749584	     -1.33797988	    110.05527873	     48.24978953	      0.00000000	      0.00000000
     56.65950000	     -4.23980553	     -3.77879215	     -5.64440579	      1.05836838	      0.91061653	      0.47557901	     27.39305911	      0.69674068	    -13.01431780	     15.41695400	     15.41695400	     -2.82217696	      3.52375639	     -1.22758216	     -6.04962125	     -5.14963086	    -14.73953056	     13.18897610	     13.18897610	     23.14128247	     -0.27524652	     -2.77230130	    -11.66102088	      3.40026243	      1.59557188	    -20.09854375	    -13.86185063	     -8.22694412	     27.19054602	     46.79355452	      0.00000000	      0.00000000	     23.02236933	    -19.61354816	     -1.89207492	    111.32109672	     48.36687454	      0.00000000	      0.00000000
     56.67157143	     -4.34145711	     -4.12049502	     -5.44673560	      1.05988614	      0.91012727	      0.47803773	     27.36567307	      1.07777272	    -12.78320135	     16.62379958	     16.62379958	     -2.64596124	      2.65299765	     -1.74994670	     -6.05286442	     -5.86317541	    -14.43760734	     14.35369574	     14.35369574	     23.27143464	     -0.71813468	     -2.92091401	    -11.56174363	      3.77500544	      1.74313592	    -19.87510687	    -13.66281423	     -8.09884734	     27.14136294	     46.78162924	      0.00000000	      0.00000000	     22.64037407	    -19.17993585	     -1.79020808	    111.69706823	     48.37525173	      0.00000000	      0.00000000
     56.68364286	     -4.47809499	     -4.49733479	     -5.23879533	      1.06129378	      0.91006222	      0.48070932	     27.29731121	      1.55543811	    -12.33082281	     17.65746674	     17.65746674	     -2.37137093	      1.43937347	     -2.22220339	     -5.81880406	     -6.71743404	    -14.22406913	     15.87761344	     15.87761344	     23.30843349	     -1.05832552	     -3.23168963	    -11.44169637	      4.13077706	      1.70778913	    -19.35583956	    -13.42892585	     -7.92045809	     27.13760105	     46.76506570	      0.00000000	      0.00000000	     21.90780753	    -18.83394193	     -1.76885617	    112.03307368	     48.38901044	      0.00000000	      0.00000000
     56.69571429	     -4.61225970	     -4.85068483	     -5.00348686	      1.06261040	      0.91047228	      0.48344126	     27.13706969	      2.01446037	    -11.92723318	     18.50612835	     18.50612835	     -1.87795202	      0.30788207	     -2.51334244	     -5.39689960	     -7.61628583	    -14.02627975	     17.69999096	     17.69999096	     23.08646775	     -1.41920868	     -3.75348490	    -11.36933520	      4.49469962	      1.62622048	    -18.57464493	    -13.24118513	     -7.69181038	     27.18705748	     46.74453287	      0.00000000	      0.00000000	     20.96121157	    -18.53353103	     -1.84750494	    112.21580124	     48.40583661	      0.00000000	      0.00000000
     56.70778571	     -4.70947732	     -5.19174496	     -4.78633882	      1.06385531	      0.91138439	      0.48629559	     26.83198737	      2.45762553	    -11.67897193	     19.14689170	     19.14689170	     -1.22094250	     -0.45903213	     -2.63210700	     -4.86805288	     -8.53160883	    -13.72715984	     19.73891509	     19.73891509	     22.59021662	     -1.94432328	     -4.41460342	    -11.34068025	      4.80763164	      1.56979881	    -17.65035924	    -13.04592357	     -7.47137691	     27.36900180	     46.72209235	      0.00000000	      0.00000000	     19.94236384	    -18.23519358	     -1.87911235	    112.12027515	     48.41020997	      0.00000000	      0.00000000
     56.71985714	     -4.83900715	     -5.48284972	     -4.57310556	      1.06501206	      0.91260330	      0.48926787	     26.45890584	      2.88071760	    -11.46278979	     19.55871621	     19.55871621	     -0.46294784	     -1.08616049	     -2.54668540	     -4.06017612	     -9.46052379	    -13.33783482	     22.15229019	     22.15229019	     21.73640186	     -2.61672008	     -5.42626017	    -11.30225670	      5.03894267	      1.44420948	    -16.55403591	    -12.84894690	     -7.19937793	     27.68422297	     46.69108317	      0.00000000	      0.00000000	     18.71420090	    -17.95081884	     -1.94440200	    111.79334829	     48.41126768	      0.00000000	      0.00000000
     56.73192857	     -4.90530926	     -5.73895425	     -4.38594808	      1.06612259	      0.91413127	      0.49233568	     26.01185079	      3.30131679	    -11.16914701	     19.96386978	     19.96386978	      0.79818223	     -1.62884334	     -1.09563312	     -3.29386043	    -10.34233871	    -12.89200431	     24.40145336	     24.40145336	     19.23097992	     -4.00477360	     -9.73742855	    -11.32737370	      5.20408948	      0.74756839	    -14.99866490	    -12.94864718	     -5.73762621	     28.14337537	     46.54584697	      0.00000000	      0.00000000	     16.82266207	    -17.69302567	     -3.10991131	    111.72492079	     48.52154958	      0.00000000	      0.00000000
     56.74400000	     -4.97114570	     -5.93685028	     -4.16726004	      1.06715754	      0.91583155	      0.49533475	     25.32912262	      3.60172948	    -11.37985814	     19.88598528	     19.88598528	      1.52170460	     -1.46214166	     -1.21112034	     -2.11418776	    -11.21497102	    -12.19340979	     27.46006202	     27.46006202	     17.84742619	     -5.06247194	    -10.47069450	    -11.35916734	      5.30498557	      0.80692506	    -13.82677995	    -12.76799190	     -5.50026793	     28.74324360	     46.50847077	      0.00000000	      0.00000000	     15.62745863	    -17.37305699	     -2.70581689	    110.84181240	     48.47715002	      0.00000000	      0.00000000
     56.75607143	     -5.04978991	     -6.05500059	     -3.96288750	      1.06812929	      0.91747688	      0.49837150	     24.63982196	      3.84654747	    -11.54434458	     19.73749735	     19.73749735	      2.23392758	     -1.29377502	     -1.23989886	     -0.69773321	    -12.02353420	    -11.39546697	     30.79928289	     30.79928289	     15.99616703	     -6.25665433	    -11.53488448	    -11.34455677	      5.31272654	      0.75276487	    -12.55505129	    -12.62564424	     -5.25911027	     29.60860517	     46.46034465	      0.00000000	      0.00000000	     14.31359279	    -17.11604666	     -2.46061783	    109.61872280	     48.43517849	      0.00000000	      0.00000000
     56.76814286	     -5.13141476	     -6.13607146	     -3.76609477	      1.06898209	      0.91902365	      0.50136046	     23.92301308	      4.05646157	    -11.78309894	     19.50674102	     19.50674102	      2.90934440	     -0.98385114	     -1.24279416	      0.92200742	    -12.76994180	    -10.43145008	     34.35216796	     34.35216796	     13.69842485	     -7.64627404	    -12.73530866	    -11.32477185	      5.27511365	      0.66162330	    -11.24221284	    -12.53517796	     -4.99631367	     30.72102719	     46.40086556	      0.00000000	      0.00000000	     12.95700340	    -16.85359978	     -2.29307797	    108.12980318	     48.39235064	      0.00000000	      0.00000000
